<svg width="122" height="32" viewBox="0 0 122 32" fill="none" xmlns="http://www.w3.org/2000/svg">
<g clip-path="url(#clip0_947_1926)">
<path d="M26.141 3.85529L0 17.2381V21.5347L26.1789 8.1325L26.141 3.85529Z" fill="#8950FA"/>
<path d="M18.8265 0L18.8645 4.38789L0 14.0455V9.63816L18.8265 0Z" fill="#8950FA"/>
<path d="M14.876 17.1115L19.0724 14.9632L29.12 20.1071V24.4036L14.876 17.1115Z" fill="#8950FA"/>
<path d="M29.12 9.81943V16.9145L22.1905 13.3669L29.12 9.81943Z" fill="#8950FA"/>
<path d="M11.7579 18.7078L26.141 26.0712L14.56 32L0.176939 24.6366L4.44343 22.4525L14.6284 27.6666L17.7465 26.0703L7.56154 20.8562L11.7579 18.7078Z" fill="#8950FA"/>
<path d="M44.1439 22.184C40.6559 22.184 38.0479 19.784 38.0479 16.392V16.36C38.0479 13.096 40.6079 10.536 44.0799 10.536C46.0479 10.536 47.4399 11.144 48.6239 12.168L46.7999 14.36C45.9999 13.688 45.1999 13.304 44.0959 13.304C42.4799 13.304 41.2319 14.664 41.2319 16.376V16.408C41.2319 18.216 42.4959 19.512 44.2719 19.512C45.0239 19.512 45.5999 19.352 46.0639 19.048V17.688H43.8559V15.416H49.0079V20.456C47.8239 21.432 46.1759 22.184 44.1439 22.184ZM49.8328 21.96L54.6008 10.68H57.5928L62.3608 21.96H59.0328L58.2168 19.96H53.8968L53.0968 21.96H49.8328ZM54.8088 17.544H57.3208L56.0728 14.36L54.8088 17.544ZM64.7461 21.96V13.48H61.3861V10.76H71.2101V13.48H67.8501V21.96H64.7461ZM72.5726 21.96V10.76H81.5806V13.4H75.6446V15.096H81.0206V17.544H75.6446V19.32H81.6606V21.96H72.5726ZM86.2364 22.04L82.4924 10.76H85.7724L87.7244 17.24L89.8844 10.728H92.5564L94.7164 17.24L96.6684 10.76H99.8844L96.1404 22.04H93.4364L91.1804 15.592L88.9404 22.04H86.2364ZM98.7859 21.96L103.554 10.68H106.546L111.314 21.96H107.986L107.17 19.96H102.85L102.05 21.96H98.7859ZM103.762 17.544H106.274L105.026 14.36L103.762 17.544ZM113.867 21.96V17.768L109.611 10.76H113.147L115.451 14.84L117.771 10.76H121.243L116.987 17.72V21.96H113.867Z" fill="#161718"/>
</g>
<defs>
<clipPath id="clip0_947_1926">
<rect width="121.28" height="32" fill="white"/>
</clipPath>
</defs>
</svg>
